<svg width="22" height="20" viewBox="0 0 22 20" version="1.1" xmlns="http://www.w3.org/2000/svg" xmlns:xlink="http://www.w3.org/1999/xlink">
<title>Group 2</title>
<desc>Created using Figma</desc>
<g id="Canvas" transform="translate(888 610)">
<g id="Group 2">
<g id="Rectangle">
<use xlink:href="#path0_fill" transform="translate(-888 -605)" fill="#333333"/>
</g>
<g id="Rectangle 2">
<use xlink:href="#path1_fill" transform="translate(-883 -610)" fill="#333333"/>
</g>
<g id="Line">
<use xlink:href="#path2_stroke" transform="matrix(6.12323e-17 1 -1 6.12323e-17 -872 -604)" fill="#333333"/>
</g>
<g id="Line">
<use xlink:href="#path3_stroke" transform="matrix(6.12323e-17 1 -1 6.12323e-17 -867 -606)" fill="#333333"/>
</g>
</g>
</g>
<defs>
<path id="path0_fill" d="M 0 2C 0 0.89543 0.895431 0 2 0L 6 0C 7.10457 0 8 0.895431 8 2L 8 8C 8 9.10457 7.10457 10 6 10L 2 10C 0.895431 10 0 9.10457 0 8L 0 2Z"/>
<path id="path1_fill" d="M 0 5.51462C 0 5.19167 0.155966 4.8886 0.418762 4.70088L 5.41876 1.12946C 6.08063 0.656693 7 1.12982 7 1.94319L 7 18.0568C 7 18.8702 6.08063 19.3433 5.41876 18.8705L 0.418762 15.2991C 0.155966 15.1114 0 14.8083 0 14.4854L 0 5.51462Z"/>
<path id="path2_stroke" d="M -0.800013 1.40002C -1.13137 1.84185 -1.04182 2.46865 -0.599983 2.80001C -0.158148 3.13137 0.468651 3.04182 0.800013 2.59998L -0.800013 1.40002ZM 7.19999 2.59998C 7.53135 3.04182 8.15815 3.13137 8.59998 2.80001C 9.04182 2.46865 9.13137 1.84185 8.80001 1.40002L 7.19999 2.59998ZM 0.800013 2.59998C 2.40001 0.466555 5.59999 0.466555 7.19999 2.59998L 8.80001 1.40002C 6.40001 -1.80012 1.59999 -1.80012 -0.800013 1.40002L 0.800013 2.59998Z"/>
<path id="path3_stroke" d="M -0.800013 2.40002C -1.13137 2.84185 -1.04182 3.46865 -0.599983 3.80001C -0.158148 4.13137 0.468651 4.04182 0.800013 3.59998L -0.800013 2.40002ZM 11.2 3.59998C 11.5313 4.04182 12.1581 4.13137 12.6 3.80001C 13.0418 3.46865 13.1314 2.84185 12.8 2.40002L 11.2 3.59998ZM 0.800013 3.59998C 3.40001 0.133163 8.59999 0.133163 11.2 3.59998L 12.8 2.40002C 9.40001 -2.13352 2.59999 -2.13352 -0.800013 2.40002L 0.800013 3.59998Z"/>
</defs>
</svg>
