<svg width="10" height="10" viewBox="0 0 10 10" version="1.1" xmlns="http://www.w3.org/2000/svg" xmlns:xlink="http://www.w3.org/1999/xlink">
<title>Polygon</title>
<desc>Created using Figma</desc>
<g id="Canvas" transform="translate(958 569)">
<rect x="-958" y="-569" width="10" height="10" fill="#E5E5E5"/>
<g id="Group">
<g id="Rectangle">
<use xlink:href="#path0_fill" transform="translate(-985 -669)" fill="#F2F2F2"/>
</g>
<g id="play">
<g id="Rectangle 2.1">
<use xlink:href="#path1_fill" transform="translate(-961 -572)" fill="#F2F2F2"/>
<use xlink:href="#path2_stroke" transform="translate(-961 -572)" fill="#E0E0E0"/>
</g>
<g id="Polygon">
<use xlink:href="#path3_fill" transform="translate(-957.235 -568.235)" fill="#333333"/>
</g>
</g>
</g>
</g>
<defs>
<path id="path0_fill" d="M 0 4C 0 1.79086 1.79086 0 4 0L 68 0C 70.2091 0 72 1.79086 72 4L 72 113C 72 115.209 70.2091 117 68 117L 4 117C 1.79086 117 0 115.209 0 113L 0 4Z"/>
<path id="path1_fill" d="M 0 4.86C 0 3.1232 0 2.2548 0.348703 1.59621C 0.630104 1.06474 1.06474 0.630104 1.59621 0.348703C 2.2548 0 3.1232 0 4.86 0L 11.14 0C 12.8768 0 13.7452 0 14.4038 0.348703C 14.9353 0.630104 15.3699 1.06474 15.6513 1.59621C 16 2.2548 16 3.1232 16 4.86L 16 11.14C 16 12.8768 16 13.7452 15.6513 14.4038C 15.3699 14.9353 14.9353 15.3699 14.4038 15.6513C 13.7452 16 12.8768 16 11.14 16L 4.86 16C 3.1232 16 2.2548 16 1.59621 15.6513C 1.06474 15.3699 0.630104 14.9353 0.348703 14.4038C 0 13.7452 0 12.8768 0 11.14L 0 4.86Z"/>
<path id="path2_stroke" d="M 1.59621 15.6513L 1.36225 16.0932L 1.59621 15.6513ZM 0.348703 14.4038L -0.0931797 14.6378L 0.348703 14.4038ZM 15.6513 14.4038L 15.2094 14.1698L 15.6513 14.4038ZM 14.4038 15.6513L 14.1698 15.2094L 14.4038 15.6513ZM 15.6513 1.59621L 16.0932 1.36225L 15.6513 1.59621ZM 4.86 0.5L 11.14 0.5L 11.14 -0.5L 4.86 -0.5L 4.86 0.5ZM 15.5 4.86L 15.5 11.14L 16.5 11.14L 16.5 4.86L 15.5 4.86ZM 11.14 15.5L 4.86 15.5L 4.86 16.5L 11.14 16.5L 11.14 15.5ZM 0.5 11.14L 0.5 4.86L -0.5 4.86L -0.5 11.14L 0.5 11.14ZM 4.86 15.5C 3.98306 15.5 3.35644 15.4996 2.86582 15.4582C 2.38133 15.4173 2.07519 15.3391 1.83018 15.2094L 1.36225 16.0932C 1.77582 16.3122 2.23317 16.4083 2.78173 16.4546C 3.32416 16.5004 4.00013 16.5 4.86 16.5L 4.86 15.5ZM -0.5 11.14C -0.5 11.9999 -0.500415 12.6758 -0.454641 13.2183C -0.40835 13.7668 -0.312154 14.2242 -0.0931797 14.6378L 0.790586 14.1698C 0.660857 13.9248 0.582701 13.6187 0.541817 13.1342C 0.500415 12.6436 0.5 12.0169 0.5 11.14L -0.5 11.14ZM 1.83018 15.2094C 1.38728 14.9749 1.02509 14.6127 0.790586 14.1698L -0.0931797 14.6378C 0.235121 15.2578 0.742194 15.7649 1.36225 16.0932L 1.83018 15.2094ZM 15.5 11.14C 15.5 12.0169 15.4996 12.6436 15.4582 13.1342C 15.4173 13.6187 15.3391 13.9248 15.2094 14.1698L 16.0932 14.6378C 16.3122 14.2242 16.4083 13.7668 16.4546 13.2183C 16.5004 12.6758 16.5 11.9999 16.5 11.14L 15.5 11.14ZM 11.14 16.5C 11.9999 16.5 12.6758 16.5004 13.2183 16.4546C 13.7668 16.4083 14.2242 16.3122 14.6378 16.0932L 14.1698 15.2094C 13.9248 15.3391 13.6187 15.4173 13.1342 15.4582C 12.6436 15.4996 12.0169 15.5 11.14 15.5L 11.14 16.5ZM 15.2094 14.1698C 14.9749 14.6127 14.6127 14.9749 14.1698 15.2094L 14.6378 16.0932C 15.2578 15.7649 15.7649 15.2578 16.0932 14.6378L 15.2094 14.1698ZM 11.14 0.5C 12.0169 0.5 12.6436 0.500415 13.1342 0.541817C 13.6187 0.582701 13.9248 0.660857 14.1698 0.790586L 14.6378 -0.0931797C 14.2242 -0.312154 13.7668 -0.40835 13.2183 -0.454641C 12.6758 -0.500415 11.9999 -0.5 11.14 -0.5L 11.14 0.5ZM 16.5 4.86C 16.5 4.00013 16.5004 3.32416 16.4546 2.78173C 16.4083 2.23317 16.3122 1.77582 16.0932 1.36225L 15.2094 1.83018C 15.3391 2.07519 15.4173 2.38133 15.4582 2.86582C 15.4996 3.35644 15.5 3.98306 15.5 4.86L 16.5 4.86ZM 14.1698 0.790586C 14.6127 1.02509 14.9749 1.38728 15.2094 1.83018L 16.0932 1.36225C 15.7649 0.742194 15.2578 0.235121 14.6378 -0.0931797L 14.1698 0.790586ZM 4.86 -0.5C 4.00013 -0.5 3.32416 -0.500415 2.78173 -0.454641C 2.23317 -0.40835 1.77582 -0.312154 1.36225 -0.0931797L 1.83018 0.790586C 2.07519 0.660857 2.38133 0.582701 2.86582 0.541817C 3.35644 0.500415 3.98306 0.5 4.86 0.5L 4.86 -0.5ZM 0.5 4.86C 0.5 3.98306 0.500415 3.35644 0.541817 2.86582C 0.582701 2.38133 0.660857 2.07519 0.790586 1.83018L -0.0931797 1.36225C -0.312154 1.77582 -0.40835 2.23317 -0.454641 2.78173C -0.500415 3.32416 -0.5 4.00013 -0.5 4.86L 0.5 4.86ZM 1.36225 -0.0931797C 0.742194 0.235121 0.235121 0.742194 -0.0931797 1.36225L 0.790586 1.83018C 1.02509 1.38728 1.38728 1.02509 1.83018 0.790586L 1.36225 -0.0931797Z"/>
<path id="path3_fill" d="M 0 0L 8.47059 3.98817L 0 8.47059L 0 0Z"/>
</defs>
</svg>
