<svg width="18" height="18" viewBox="0 0 18 18" version="1.1" xmlns="http://www.w3.org/2000/svg" xmlns:xlink="http://www.w3.org/1999/xlink">
<title>synch</title>
<desc>Created using Figma</desc>
<g id="Canvas" transform="translate(1189 528)">
<g id="synch">
<use xlink:href="#path0_fill" transform="translate(-1189 -528)" fill="#333333"/>
</g>
</g>
<defs>
<path id="path0_fill" fill-rule="evenodd" d="M 18 3.59998L 14 0L 14 2.37427C 13.8652 2.3913 13.7312 2.41681 13.5981 2.45087C 12.8665 2.63824 12.2528 3.06097 11.7369 3.56531C 10.734 4.54559 9.90564 6.03632 9.15112 7.44592L 9.02734 7.67773L 8.87756 7.95898C 8.18994 9.25079 7.52917 10.492 6.77783 11.4977C 5.94531 12.6119 5.13538 13.2492 4.26648 13.4L 0 13.4L 0 15.4L 14 15.4L 14 18L 18 14.4L 14 10.8L 14 13.4L 7.80847 13.4C 8.00964 13.1727 8.19983 12.9359 8.38 12.6948C 9.23022 11.5568 9.96875 10.1677 10.6451 8.89532L 10.7655 8.66888L 10.9144 8.38965C 11.698 6.92566 12.3906 5.72302 13.1349 4.99561C 13.4535 4.68408 13.7396 4.50348 14 4.4162L 14 7.20001L 18 3.59998Z"/>
</defs>
</svg>
