<svg width="8" height="9" viewBox="0 0 8 9" version="1.1" xmlns="http://www.w3.org/2000/svg" xmlns:xlink="http://www.w3.org/1999/xlink">
<title>Subtract</title>
<desc>Created using Figma</desc>
<g id="Canvas" transform="translate(930 661)">
<g id="Subtract">
<use xlink:href="#path0_fill" transform="translate(-930 -661)" fill="#333333"/>
</g>
</g>
<defs>
<path id="path0_fill" fill-rule="evenodd" d="M 4.79292 1.67868C 4.40239 2.06918 4.40239 2.70236 4.79292 3.0929C 5.18343 3.4834 5.8166 3.4834 6.20711 3.0929L 7.79442 1.50558C 7.92668 1.81033 8.00002 2.14661 8.00002 2.5C 8.00002 3.88071 6.88075 5 5.50002 5C 5.20869 5 4.92903 4.95016 4.66908 4.85858L 1.70711 7.82059C 1.3166 8.21109 0.683426 8.21109 0.292923 7.82059C -0.097641 7.43005 -0.097641 6.79688 0.292923 6.40637L 3.2054 3.4939C 3.07326 3.18927 3.00002 2.85318 3.00002 2.5C 3.00002 1.11929 4.11928 0 5.50002 0C 5.79109 0 6.0706 0.0497437 6.3304 0.141205L 4.79292 1.67868ZM 1.50002 7C 1.50002 7.27615 1.27614 7.5 1.00002 7.5C 0.723892 7.5 0.500015 7.27615 0.500015 7C 0.500015 6.72385 0.723892 6.5 1.00002 6.5C 1.27614 6.5 1.50002 6.72385 1.50002 7Z"/>
</defs>
</svg>
