<svg width="19" height="18" viewBox="0 0 19 18" version="1.1" xmlns="http://www.w3.org/2000/svg" xmlns:xlink="http://www.w3.org/1999/xlink">
<title>trash</title>
<desc>Created using Figma</desc>
<g id="Canvas" transform="translate(1146 504)">
<g id="trash">
<use xlink:href="#path0_fill" transform="translate(-1146 -504)" fill="#333333"/>
</g>
</g>
<defs>
<path id="path0_fill" fill-rule="evenodd" d="M 5.5 0L 5 0L 4.5 0L 4.5 2C 4.5 2.27615 4.72388 2.5 5 2.5C 5.27612 2.5 5.5 2.27615 5.5 2L 5.5 1L 13.5 1L 13.5 2C 13.5 2.27615 13.7239 2.5 14 2.5C 14.2761 2.5 14.5 2.27615 14.5 2L 14.5 0L 14 0L 13.5 0L 5.5 0ZM 18 4L 1 4L 1 6L 1.72986 6L 17.2701 6L 18 6L 18 4ZM 0 7L 0.729492 7C 0.729492 7.06702 0.736572 7.13525 0.750854 7.20395L 2.83411 17.2039C 2.93079 17.6677 3.33948 18 3.81311 18L 15.1869 18C 15.6605 18 16.0692 17.6677 16.1659 17.2039L 18.2491 7.20395C 18.2634 7.13525 18.2705 7.06702 18.2705 7L 19 7L 19 6L 19 4L 19 3L 18 3L 1 3L 0 3L 0 4L 0 6L 0 7ZM 3.81311 17L 1.72986 7L 17.2701 7L 15.1869 17L 3.81311 17ZM 5.09143 8.24252C 5.02441 7.97464 4.75293 7.81177 4.48511 7.87872C 4.21716 7.94571 4.05432 8.21716 4.12122 8.48508L 5.87878 15.5149C 5.94568 15.7828 6.21716 15.9457 6.48511 15.8787C 6.75293 15.8118 6.91589 15.5403 6.84888 15.2724L 5.09143 8.24252ZM 14.5149 7.87872C 14.2471 7.81177 13.9756 7.97464 13.9086 8.24252L 12.1511 15.2724C 12.0841 15.5403 12.2471 15.8118 12.5149 15.8787C 12.7828 15.9457 13.0543 15.7828 13.1212 15.5149L 14.8788 8.48508C 14.9457 8.21716 14.7828 7.94571 14.5149 7.87872ZM 10 8.39999C 10 8.12384 9.77612 7.89999 9.5 7.89999C 9.22388 7.89999 9 8.12384 9 8.39999L 9 15.3C 9 15.5761 9.22388 15.8 9.5 15.8C 9.77612 15.8 10 15.5761 10 15.3L 10 8.39999Z"/>
</defs>
</svg>
